<?xml version="1.0" standalone="no"?>
<!DOCTYPE svg PUBLIC "-//W3C//DTD SVG 20010904//EN"
 "http://www.w3.org/TR/2001/REC-SVG-20010904/DTD/svg10.dtd">
<svg version="1.0" xmlns="http://www.w3.org/2000/svg"
 width="32.000000pt" height="32.000000pt" viewBox="0 0 32.000000 32.000000"
 preserveAspectRatio="xMidYMid meet">

<g transform="translate(0.000000,32.000000) scale(0.100000,-0.100000)"
fill="#000000" stroke="none">
<path d="M22 297 c-20 -21 -22 -34 -22 -138 0 -108 2 -117 23 -137 21 -20 34
-22 138 -22 108 0 117 2 137 23 20 21 22 34 22 138 0 108 -2 117 -23 137 -21
20 -34 22 -138 22 -108 0 -117 -2 -137 -23z m196 -69 c16 -16 15 -63 -1 -76
-6 -6 -24 -13 -40 -17 -21 -6 -27 -4 -27 8 0 9 10 17 22 19 44 6 31 57 -14 58
-15 0 -18 -10 -18 -64 0 -44 -5 -67 -15 -76 -13 -11 -15 -2 -15 74 l0 86 48 0
c26 0 53 -5 60 -12z"/>
</g>
</svg>
